<svg xmlns="http://www.w3.org/2000/svg" xmlns:xlink="http://www.w3.org/1999/xlink" aria-hidden="true" focusable="false"
    width="2rem" height="2rem"
    style="-ms-transform: rotate(360deg); -webkit-transform: rotate(360deg); transform: rotate(360deg);"
    preserveAspectRatio="xMidYMid meet" viewBox="0 0 24 24">
    <path
        d="M15 10.5c0 .8-.7 1.5-1.5 1.5c.8 0 1.5.7 1.5 1.5V15a2 2 0 0 1-2 2H9V7h4a2 2 0 0 1 2 2v1.5M13 15v-2h-2v2h2m0-4V9h-2v2h2m-1-9a10 10 0 0 1 10 10a10 10 0 0 1-10 10A10 10 0 0 1 2 12A10 10 0 0 1 12 2m0 2a8 8 0 0 0-8 8a8 8 0 0 0 8 8a8 8 0 0 0 8-8a8 8 0 0 0-8-8z"
        fill="white" /></svg>